<?xml version="1.0" encoding="UTF-8"?>
<svg id="Layer_1" data-name="Layer 1" xmlns="http://www.w3.org/2000/svg" viewBox="0 0 531.37 317.32">
  <defs>
    <style>
      .cls-1 {
        fill: #fff;
      }
    </style>
  </defs>
  <path class="cls-1" d="M122.28,0h-35.94L8.77,225.43h25.85l21.76-64.95h93.01l22.07,64.95h27.11L122.28,0ZM63.95,138.73L103.04,22.7l39.1,116.03H63.95Z"/>
  <polygon class="cls-1" points="438.77 225.43 438.77 0 400.94 0 333.47 175.62 263.79 0 225.64 0 225.64 225.43 250.86 225.43 250.86 35.63 328.11 225.43 336.62 225.43 411.34 35.63 411.34 225.43 438.77 225.43"/>
  <rect class="cls-1" x="487.78" width="27.44" height="225.43"/>
  <g>
    <path class="cls-1" d="M11.68,274.3L0,308.25h3.89l3.28-9.78h14.01l3.32,9.78h4.08l-11.49-33.95h-5.41ZM8.31,295.19l5.89-17.47,5.89,17.47h-11.77Z"/>
    <rect class="cls-1" x="32.9" y="271.54" width="3.99" height="36.7"/>
    <rect class="cls-1" x="43.64" y="271.54" width="3.99" height="36.7"/>
    <path class="cls-1" d="M64,282.99c-6.84,0-11.63,5.22-11.63,12.72v.38c0,7.64,4.99,12.58,12.01,12.58,5.6,0,9.73-2.61,10.59-7.6h-3.94c-.52,2.9-2.75,4.32-6.6,4.32-5.08,0-7.79-3.13-7.98-8.78h18.71v-1.28c0-8.88-5.41-12.35-11.16-12.35ZM56.6,293.43c.66-4.42,3.37-7.17,7.41-7.17s6.74,2.04,7.12,7.17h-14.53Z"/>
    <path class="cls-1" d="M83.9,287.88v-4.46h-3.94v24.83h3.94v-13.63c0-6.13,3.18-7.69,8.17-7.93v-3.7c-4.46.14-6.6,2.09-8.17,4.89Z"/>
    <path class="cls-1" d="M112.48,287.4c-1.42-2.42-3.99-4.42-8.12-4.42-6.84,0-11.58,5.6-11.58,12.35v.33c0,6.84,4.8,11.77,11.3,11.77,3.61,0,6.98-2.28,8.4-4.7v3.61c0,5.32-3.09,7.64-7.98,7.64-4.23,0-6.6-1.47-7.17-4.32h-4.04c.66,4.18,3.89,7.64,11.25,7.64,6.93,0,11.82-3.51,11.87-10.73v-23.17h-3.94v3.99ZM112.62,295.38c0,5.55-3.51,8.78-8.12,8.78-4.18,0-7.64-3.23-7.64-8.64v-.38c0-5.22,2.94-8.88,7.88-8.88s7.88,3.23,7.88,8.78v.33Z"/>
    <path class="cls-1" d="M132.04,282.99c-4.8,0-9.31,2.09-9.83,7.74h3.94c.38-3.04,2.28-4.46,5.7-4.46,3.8,0,5.32,1.66,5.32,5.6v1.8h-3.56c-6.36,0-12.44,1.95-12.44,7.69,0,5.08,3.66,7.31,8.26,7.31,3.66,0,5.89-1.23,7.74-3.56v3.13h3.94v-16.38c0-6.93-4.32-8.88-9.07-8.88ZM137.17,299.56c0,3.85-3.18,5.98-7.36,5.98-3.47,0-4.7-1.61-4.7-4.18,0-3.66,3.66-4.89,8.64-4.89h3.42v3.09Z"/>
    <path class="cls-1" d="M158.92,282.99c-4.08,0-6.84,2.04-7.98,4.37v-3.94h-3.94v24.83h3.94v-15.05c0-4.46,3.28-6.79,6.93-6.79,3.99,0,5.84,1.95,5.84,6.32v15.53h3.94v-15.24c0-7.22-3.61-10.02-8.74-10.02Z"/>
    <polygon class="cls-1" points="201.7 300.75 191.21 274.3 185.46 274.3 185.46 308.25 189.26 308.25 189.26 279.66 200.89 308.25 202.17 308.25 213.43 279.66 213.43 308.25 217.56 308.25 217.56 274.3 211.86 274.3 201.7 300.75"/>
    <path class="cls-1" d="M233.75,282.99c-6.84,0-11.63,5.22-11.63,12.72v.38c0,7.64,4.99,12.58,12.01,12.58,5.6,0,9.73-2.61,10.59-7.6h-3.94c-.52,2.9-2.75,4.32-6.6,4.32-5.08,0-7.79-3.13-7.98-8.78h18.71v-1.28c0-8.88-5.41-12.35-11.16-12.35ZM226.34,293.43c.66-4.42,3.37-7.17,7.41-7.17s6.74,2.04,7.12,7.17h-14.53Z"/>
    <path class="cls-1" d="M268.03,287.07c-1.42-2.42-3.99-4.42-8.12-4.42-6.84,0-11.58,5.37-11.58,12.96v.38c0,7.74,4.7,12.34,11.2,12.34,3.61,0,7.07-2.28,8.5-4.7v4.27h3.94v-36.7h-3.94v15.86ZM268.17,295.67c0,6.36-3.61,9.4-8.21,9.4-4.18,0-7.55-2.99-7.55-9.26v-.38c0-6.03,2.94-9.5,7.88-9.5s7.88,2.99,7.88,9.35v.38Z"/>
    <path class="cls-1" d="M280.14,273.02c-1.42,0-2.61,1.19-2.61,2.61s1.19,2.61,2.61,2.61,2.61-1.19,2.61-2.61-1.19-2.61-2.61-2.61Z"/>
    <rect class="cls-1" x="278.25" y="283.41" width="3.94" height="24.83"/>
    <path class="cls-1" d="M299.66,305.07c-4.8,0-8.12-3.23-8.12-9.31v-.38c0-5.84,3.47-9.45,7.98-9.45,3.42,0,6.27,1.47,6.88,5.41h3.89c-.76-6.32-5.6-8.69-10.78-8.69-6.65,0-12.06,5.13-12.06,12.72v.38c0,7.69,5.22,12.58,12.15,12.58,5.98,0,10.3-3.99,10.83-9.35h-3.66c-.43,4.04-3.61,6.08-7.12,6.08Z"/>
    <path class="cls-1" d="M324.96,282.99c-4.8,0-9.31,2.09-9.83,7.74h3.94c.38-3.04,2.28-4.46,5.7-4.46,3.8,0,5.32,1.66,5.32,5.6v1.8h-3.56c-6.36,0-12.44,1.95-12.44,7.69,0,5.08,3.66,7.31,8.26,7.31,3.66,0,5.89-1.23,7.74-3.56v3.13h3.94v-16.38c0-6.93-4.32-8.88-9.07-8.88ZM330.09,299.56c0,3.85-3.18,5.98-7.36,5.98-3.47,0-4.7-1.61-4.7-4.18,0-3.66,3.66-4.89,8.64-4.89h3.42v3.09Z"/>
    <rect class="cls-1" x="339.97" y="271.54" width="3.99" height="36.7"/>
    <rect class="cls-1" x="361.86" y="274.3" width="4.13" height="33.95"/>
    <path class="cls-1" d="M383.79,282.99c-4.08,0-6.84,2.04-7.98,4.37v-3.94h-3.94v24.83h3.94v-15.05c0-4.46,3.28-6.79,6.93-6.79,3.99,0,5.84,1.95,5.84,6.32v15.53h3.94v-15.24c0-7.22-3.61-10.02-8.74-10.02Z"/>
    <path class="cls-1" d="M406.96,293.77c-4.56-.81-5.79-1.71-5.79-3.94s1.85-3.56,4.7-3.56c3.13,0,4.65,1.19,5.22,3.89h3.8c-.66-5.36-4.51-7.17-8.97-7.17-3.89,0-8.4,2.37-8.4,6.98,0,4.32,2.18,6.12,8.64,7.31,3.85.71,5.79,1.57,5.79,4.18s-1.66,3.94-5.41,3.94c-3.99,0-5.55-1.85-5.84-4.8h-3.85c.24,5.08,3.8,8.07,9.73,8.07s9.12-3.04,9.12-7.55c0-5.27-3.61-6.41-8.74-7.36Z"/>
    <path class="cls-1" d="M425.05,301.65v-14.91h5.79v-3.32h-5.79v-5.65h-3.94v5.65h-3.56v3.32h3.56v15.29c0,3.89,2.18,6.55,6.69,6.55,1.61,0,2.56-.24,3.37-.52v-3.32c-.85.33-1.8.52-3.04.52-1.99,0-3.09-1.19-3.09-3.61Z"/>
    <rect class="cls-1" x="435.83" y="283.41" width="3.94" height="24.83"/>
    <path class="cls-1" d="M437.73,273.02c-1.43,0-2.61,1.19-2.61,2.61s1.19,2.61,2.61,2.61,2.61-1.19,2.61-2.61-1.19-2.61-2.61-2.61Z"/>
    <path class="cls-1" d="M451.98,301.65v-14.91h5.79v-3.32h-5.79v-5.65h-3.94v5.65h-3.56v3.32h3.56v15.29c0,3.89,2.18,6.55,6.69,6.55,1.61,0,2.56-.24,3.37-.52v-3.32c-.85.33-1.8.52-3.04.52-1.99,0-3.09-1.19-3.09-3.61Z"/>
    <path class="cls-1" d="M478.66,298.47c0,4.46-3.32,6.79-6.84,6.79-3.89,0-5.74-1.95-5.74-6.32v-15.53h-3.94v15.72c0,6.84,3.7,9.54,8.64,9.54,3.99,0,6.74-2.04,7.88-4.37v3.94h3.94v-24.83h-3.94v15.05Z"/>
    <path class="cls-1" d="M493.95,301.65v-14.91h5.79v-3.32h-5.79v-5.65h-3.94v5.65h-3.56v3.32h3.56v15.29c0,3.89,2.18,6.55,6.69,6.55,1.61,0,2.56-.24,3.37-.52v-3.32c-.85.33-1.8.52-3.04.52-1.99,0-3.09-1.19-3.09-3.61Z"/>
    <path class="cls-1" d="M513.89,282.99c-6.84,0-11.63,5.22-11.63,12.72v.38c0,7.64,4.99,12.58,12.01,12.58,5.6,0,9.73-2.61,10.59-7.6h-3.94c-.52,2.9-2.75,4.32-6.6,4.32-5.08,0-7.79-3.13-7.98-8.78h18.71v-1.28c0-8.88-5.41-12.35-11.16-12.35ZM506.48,293.43c.66-4.42,3.37-7.17,7.41-7.17s6.74,2.04,7.12,7.17h-14.53Z"/>
    <path class="cls-1" d="M528.52,302.9c-1.59,0-2.84,1.27-2.84,2.84s1.27,2.82,2.84,2.82,2.84-1.23,2.84-2.83-1.23-2.83-2.84-2.83ZM528.52,308.1c-1.31,0-2.33-.95-2.33-2.36s.97-2.38,2.33-2.38,2.33.97,2.33,2.37-1.01,2.37-2.33,2.37Z"/>
    <path class="cls-1" d="M529.61,305.15h0c0-.59-.42-.86-1.08-.86h-.99v2.81h.62v-1.09h.29l.68,1.09h.64l-.74-1.19c.33-.1.58-.33.58-.76ZM529.01,305.18c0,.27-.17.41-.49.41h-.36v-.82h.36c.31,0,.49.1.49.4h0Z"/>
  </g>
</svg>